<svg width="21" height="24" viewBox="0 0 21 24" fill="none" xmlns="http://www.w3.org/2000/svg">
<path d="M15.9044 2.6718V0.867468C15.9044 0.393252 15.5111 0 15.0369 0C14.5627 0 14.1694 0.393252 14.1694 0.867468V2.60241H6.65139V0.867468C6.65139 0.393252 6.25814 0 5.78392 0C5.30971 0 4.91645 0.393252 4.91645 0.867468V2.6718C1.79357 2.96096 0.27839 4.82312 0.0470647 7.58746C0.0239323 7.92288 0.301522 8.20047 0.625377 8.20047H20.1955C20.5309 8.20047 20.8085 7.91131 20.7738 7.58746C20.5424 4.82312 19.0273 2.96096 15.9044 2.6718Z" fill="#FEA500"/>
<path opacity="0.6" d="M19.6627 9.93555H1.15675C0.520603 9.93555 0.00012207 10.456 0.00012207 11.0922V18.217C0.00012207 21.6869 1.73506 24.0001 5.78324 24.0001H15.0362C19.0844 24.0001 20.8194 21.6869 20.8194 18.217V11.0922C20.8194 10.456 20.2989 9.93555 19.6627 9.93555ZM7.18276 19.6165C7.0671 19.7206 6.93987 19.8016 6.80107 19.8594C6.66228 19.9172 6.51192 19.9519 6.36156 19.9519C6.2112 19.9519 6.06083 19.9172 5.92204 19.8594C5.78324 19.8016 5.65602 19.7206 5.54035 19.6165C5.33216 19.3967 5.20493 19.096 5.20493 18.7953C5.20493 18.4946 5.33216 18.1938 5.54035 17.9741C5.65602 17.87 5.78324 17.789 5.92204 17.7312C6.19963 17.6155 6.52348 17.6155 6.80107 17.7312C6.93987 17.789 7.0671 17.87 7.18276 17.9741C7.39095 18.1938 7.51818 18.4946 7.51818 18.7953C7.51818 19.096 7.39095 19.3967 7.18276 19.6165ZM7.42565 15.1866C7.36782 15.3254 7.28686 15.4526 7.18276 15.5683C7.0671 15.6724 6.93987 15.7534 6.80107 15.8112C6.66228 15.869 6.51192 15.9037 6.36156 15.9037C6.2112 15.9037 6.06083 15.869 5.92204 15.8112C5.78324 15.7534 5.65602 15.6724 5.54035 15.5683C5.43626 15.4526 5.35529 15.3254 5.29746 15.1866C5.23963 15.0478 5.20493 14.8975 5.20493 14.7471C5.20493 14.5967 5.23963 14.4464 5.29746 14.3076C5.35529 14.1688 5.43626 14.0416 5.54035 13.9259C5.65602 13.8218 5.78324 13.7408 5.92204 13.683C6.19963 13.5673 6.52348 13.5673 6.80107 13.683C6.93987 13.7408 7.0671 13.8218 7.18276 13.9259C7.28686 14.0416 7.36782 14.1688 7.42565 14.3076C7.48348 14.4464 7.51818 14.5967 7.51818 14.7471C7.51818 14.8975 7.48348 15.0478 7.42565 15.1866ZM11.2309 15.5683C11.1153 15.6724 10.9881 15.7534 10.8493 15.8112C10.7105 15.869 10.5601 15.9037 10.4097 15.9037C10.2594 15.9037 10.109 15.869 9.97022 15.8112C9.83143 15.7534 9.7042 15.6724 9.58854 15.5683C9.38035 15.3485 9.25312 15.0478 9.25312 14.7471C9.25312 14.4464 9.38035 14.1457 9.58854 13.9259C9.7042 13.8218 9.83143 13.7408 9.97022 13.683C10.2478 13.5558 10.5717 13.5558 10.8493 13.683C10.9881 13.7408 11.1153 13.8218 11.2309 13.9259C11.4391 14.1457 11.5664 14.4464 11.5664 14.7471C11.5664 15.0478 11.4391 15.3485 11.2309 15.5683Z" fill="#FEA500"/>
</svg>
