<svg width="14" height="15" viewBox="0 0 14 15" fill="none" xmlns="http://www.w3.org/2000/svg">
<path d="M10.3473 2.0031V0.905872C10.3473 0.617497 10.1081 0.378357 9.81977 0.378357C9.53139 0.378357 9.29225 0.617497 9.29225 0.905872V1.9609H4.72046V0.905872C4.72046 0.617497 4.48132 0.378357 4.19294 0.378357C3.90457 0.378357 3.66543 0.617497 3.66543 0.905872V2.0031C1.76637 2.17894 0.844982 3.31134 0.704312 4.99235C0.690245 5.19632 0.859049 5.36513 1.05599 5.36513H12.9567C13.1607 5.36513 13.3295 5.18929 13.3084 4.99235C13.1677 3.31134 12.2463 2.17894 10.3473 2.0031Z" fill="#EE6224"/>
<path opacity="0.6" d="M12.6328 6.42017H1.3792C0.992351 6.42017 0.675842 6.73667 0.675842 7.12352V11.4562C0.675842 13.5662 1.73087 14.9729 4.19261 14.9729H9.81943C12.2812 14.9729 13.3362 13.5662 13.3362 11.4562V7.12352C13.3362 6.73667 13.0197 6.42017 12.6328 6.42017ZM5.04366 12.3072C4.97333 12.3705 4.89596 12.4198 4.81156 12.4549C4.72715 12.4901 4.63572 12.5112 4.54428 12.5112C4.45285 12.5112 4.36141 12.4901 4.27701 12.4549C4.19261 12.4198 4.11524 12.3705 4.0449 12.3072C3.9183 12.1736 3.84093 11.9907 3.84093 11.8078C3.84093 11.625 3.9183 11.4421 4.0449 11.3085C4.11524 11.2452 4.19261 11.1959 4.27701 11.1608C4.44581 11.0904 4.64275 11.0904 4.81156 11.1608C4.89596 11.1959 4.97333 11.2452 5.04366 11.3085C5.17027 11.4421 5.24764 11.625 5.24764 11.8078C5.24764 11.9907 5.17027 12.1736 5.04366 12.3072ZM5.19137 9.61339C5.1562 9.69779 5.10697 9.77516 5.04366 9.84549C4.97333 9.9088 4.89596 9.95803 4.81156 9.9932C4.72715 10.0284 4.63572 10.0495 4.54428 10.0495C4.45285 10.0495 4.36141 10.0284 4.27701 9.9932C4.19261 9.95803 4.11524 9.9088 4.0449 9.84549C3.9816 9.77516 3.93237 9.69779 3.8972 9.61339C3.86203 9.52899 3.84093 9.43755 3.84093 9.34611C3.84093 9.25468 3.86203 9.16324 3.8972 9.07884C3.93237 8.99444 3.9816 8.91707 4.0449 8.84673C4.11524 8.78343 4.19261 8.7342 4.27701 8.69903C4.44581 8.62869 4.64275 8.62869 4.81156 8.69903C4.89596 8.7342 4.97333 8.78343 5.04366 8.84673C5.10697 8.91707 5.1562 8.99444 5.19137 9.07884C5.22653 9.16324 5.24764 9.25468 5.24764 9.34611C5.24764 9.43755 5.22653 9.52899 5.19137 9.61339ZM7.5054 9.84549C7.43506 9.9088 7.35769 9.95803 7.27329 9.9932C7.18889 10.0284 7.09745 10.0495 7.00602 10.0495C6.91458 10.0495 6.82315 10.0284 6.73874 9.9932C6.65434 9.95803 6.57697 9.9088 6.50664 9.84549C6.38003 9.71186 6.30266 9.52899 6.30266 9.34611C6.30266 9.16324 6.38003 8.98037 6.50664 8.84673C6.57697 8.78343 6.65434 8.7342 6.73874 8.69903C6.90755 8.62166 7.10449 8.62166 7.27329 8.69903C7.35769 8.7342 7.43506 8.78343 7.5054 8.84673C7.632 8.98037 7.70937 9.16324 7.70937 9.34611C7.70937 9.52899 7.632 9.71186 7.5054 9.84549Z" fill="#EE6224"/>
</svg>
