<svg width="17" height="18" viewBox="0 0 17 18" fill="none" xmlns="http://www.w3.org/2000/svg">
<path d="M12.6718 2.00385V0.650601C12.6718 0.294939 12.3769 0 12.0212 0C11.6656 0 11.3706 0.294939 11.3706 0.650601V1.9518H5.73209V0.650601C5.73209 0.294939 5.43715 0 5.08149 0C4.72583 0 4.43089 0.294939 4.43089 0.650601V2.00385C2.08872 2.22072 0.952338 3.61734 0.778844 5.69059C0.761495 5.94216 0.969687 6.15035 1.21258 6.15035H15.8901C16.1417 6.15035 16.3499 5.93348 16.3239 5.69059C16.1504 3.61734 15.014 2.22072 12.6718 2.00385Z" fill="white"/>
<path opacity="0.6" d="M15.4906 7.4516H1.61112C1.13401 7.4516 0.743652 7.84196 0.743652 8.31907V13.6627C0.743652 16.2651 2.04486 18 5.081 18H12.0207C15.0569 18 16.3581 16.2651 16.3581 13.6627V8.31907C16.3581 7.84196 15.9677 7.4516 15.4906 7.4516ZM6.13063 14.7123C6.04389 14.7904 5.94846 14.8511 5.84437 14.8945C5.74027 14.9379 5.6275 14.9639 5.51473 14.9639C5.40196 14.9639 5.28919 14.9379 5.18509 14.8945C5.081 14.8511 4.98557 14.7904 4.89883 14.7123C4.74268 14.5475 4.64726 14.3219 4.64726 14.0964C4.64726 13.8709 4.74268 13.6453 4.89883 13.4805C4.98557 13.4024 5.081 13.3417 5.18509 13.2983C5.39328 13.2116 5.63618 13.2116 5.84437 13.2983C5.94846 13.3417 6.04389 13.4024 6.13063 13.4805C6.28678 13.6453 6.3822 13.8709 6.3822 14.0964C6.3822 14.3219 6.28678 14.5475 6.13063 14.7123ZM6.3128 11.3899C6.26943 11.494 6.2087 11.5894 6.13063 11.6762C6.04389 11.7542 5.94846 11.815 5.84437 11.8583C5.74027 11.9017 5.6275 11.9277 5.51473 11.9277C5.40196 11.9277 5.28919 11.9017 5.18509 11.8583C5.081 11.815 4.98557 11.7542 4.89883 11.6762C4.82075 11.5894 4.76003 11.494 4.71666 11.3899C4.67328 11.2858 4.64726 11.173 4.64726 11.0603C4.64726 10.9475 4.67328 10.8347 4.71666 10.7306C4.76003 10.6265 4.82075 10.5311 4.89883 10.4444C4.98557 10.3663 5.081 10.3056 5.18509 10.2622C5.39328 10.1754 5.63618 10.1754 5.84437 10.2622C5.94846 10.3056 6.04389 10.3663 6.13063 10.4444C6.2087 10.5311 6.26943 10.6265 6.3128 10.7306C6.35617 10.8347 6.3822 10.9475 6.3822 11.0603C6.3822 11.173 6.35617 11.2858 6.3128 11.3899ZM9.16677 11.6762C9.08002 11.7542 8.9846 11.815 8.88051 11.8583C8.77641 11.9017 8.66364 11.9277 8.55087 11.9277C8.4381 11.9277 8.32533 11.9017 8.22123 11.8583C8.11713 11.815 8.02171 11.7542 7.93497 11.6762C7.77882 11.5114 7.6834 11.2858 7.6834 11.0603C7.6834 10.8347 7.77882 10.6092 7.93497 10.4444C8.02171 10.3663 8.11713 10.3056 8.22123 10.2622C8.42942 10.1668 8.67231 10.1668 8.88051 10.2622C8.9846 10.3056 9.08002 10.3663 9.16677 10.4444C9.32292 10.6092 9.41834 10.8347 9.41834 11.0603C9.41834 11.2858 9.32292 11.5114 9.16677 11.6762Z" fill="white"/>
</svg>
