<svg width="17" height="24" viewBox="0 0 17 24" fill="none" xmlns="http://www.w3.org/2000/svg">
<path d="M8.44731 0C5.30331 0 2.74731 2.556 2.74731 5.7C2.74731 8.784 5.15931 11.28 8.30331 11.388C8.39931 11.376 8.49531 11.376 8.56731 11.388C8.59131 11.388 8.60331 11.388 8.62731 11.388C8.63931 11.388 8.63931 11.388 8.65131 11.388C11.7233 11.28 14.1353 8.784 14.1473 5.7C14.1473 2.556 11.5913 0 8.44731 0Z" fill="#FEA500"/>
<path opacity="0.6" d="M14.5435 14.5801C11.1955 12.3481 5.73551 12.3481 2.36351 14.5801C0.839511 15.6001 -0.000488281 16.9801 -0.000488281 18.4561C-0.000488281 19.9321 0.839511 21.3001 2.35151 22.3081C4.03151 23.4361 6.23951 24.0001 8.44751 24.0001C10.6555 24.0001 12.8635 23.4361 14.5435 22.3081C16.0555 21.2881 16.8955 19.9201 16.8955 18.4321C16.8835 16.9561 16.0555 15.5881 14.5435 14.5801Z" fill="#FEA500"/>
</svg>
