<svg width="14" height="19" viewBox="0 0 14 19" fill="none" xmlns="http://www.w3.org/2000/svg">
<path d="M7.09893 0C4.60993 0 2.58643 2.0235 2.58643 4.5125C2.58643 6.954 4.49593 8.93 6.98493 9.0155C7.06093 9.006 7.13693 9.006 7.19393 9.0155C7.21293 9.0155 7.22243 9.0155 7.24143 9.0155C7.25093 9.0155 7.25093 9.0155 7.26043 9.0155C9.69243 8.93 11.6019 6.954 11.6114 4.5125C11.6114 2.0235 9.58793 0 7.09893 0Z" fill="white"/>
<path opacity="0.6" d="M11.9251 11.5425C9.27463 9.77554 4.95213 9.77554 2.28263 11.5425C1.07613 12.35 0.411133 13.4425 0.411133 14.611C0.411133 15.7795 1.07613 16.8625 2.27313 17.6605C3.60313 18.5535 5.35113 19 7.09913 19C8.84713 19 10.5951 18.5535 11.9251 17.6605C13.1221 16.853 13.7871 15.77 13.7871 14.592C13.7776 13.4235 13.1221 12.3405 11.9251 11.5425Z" fill="white"/>
</svg>
