<svg width="29" height="29" viewBox="0 0 29 29" fill="none" xmlns="http://www.w3.org/2000/svg">
<path d="M7.79159 22.6978C5.06943 22.6978 2.86267 20.517 2.86267 17.8268C2.86267 15.1367 5.06943 12.9559 7.79159 12.9559C8.11835 12.9559 8.4377 12.9873 8.74668 13.0473M8.74668 13.0473C8.48319 12.3445 8.33925 11.5844 8.33925 10.791C8.33925 7.20417 11.2816 4.29645 14.9112 4.29645C18.2921 4.29645 21.0766 6.8194 21.4424 10.0641M8.74668 13.0473C9.39582 13.1732 9.99926 13.4251 10.5299 13.7761M17.1018 10.0782C17.787 9.83882 18.5243 9.7086 19.2924 9.7086C20.0454 9.7086 20.7687 9.83373 21.4424 10.0641M21.4424 10.0641C24.0161 10.9442 25.8643 13.3604 25.8643 16.2031C25.8643 19.3164 23.6477 21.9181 20.689 22.5508" stroke="#FEA500" stroke-width="1.45274" stroke-linecap="round"/>
<path d="M14.3638 19.2473V26.1478M14.3638 19.2473L16.6639 21.5475M14.3638 19.2473L12.0636 21.5475" stroke="#FEA500" stroke-width="1.45274" stroke-linecap="round" stroke-linejoin="round"/>
</svg>
