<svg width="22" height="13" viewBox="0 0 22 13" fill="none" xmlns="http://www.w3.org/2000/svg">
<path fill-rule="evenodd" clip-rule="evenodd" d="M0.468693 1.53723C0.468693 1.01872 0.889027 0.598389 1.40754 0.598389H20.9605C21.479 0.598389 21.8994 1.01872 21.8994 1.53723C21.8994 2.05574 21.479 2.47608 20.9605 2.47608H1.40754C0.889027 2.47608 0.468693 2.05574 0.468693 1.53723ZM0.468506 6.61573C0.468506 6.09722 0.88884 5.67689 1.40735 5.67689H15.6027C16.1212 5.67689 16.5415 6.09722 16.5415 6.61573C16.5415 7.13424 16.1212 7.55458 15.6027 7.55458H1.40735C0.88884 7.55458 0.468506 7.13424 0.468506 6.61573ZM1.40735 10.7554C0.88884 10.7554 0.468506 11.1757 0.468506 11.6942C0.468506 12.2127 0.888841 12.6331 1.40735 12.6331H20.9603C21.4788 12.6331 21.8992 12.2127 21.8992 11.6942C21.8992 11.1757 21.4788 10.7554 20.9603 10.7554H1.40735Z" fill="white"/>
</svg>