<svg width="28" height="29" viewBox="0 0 28 29" fill="none" xmlns="http://www.w3.org/2000/svg">
<path d="M7.1911 0.485107H5.81822C1.69955 0.485107 0.32666 2.94258 0.32666 5.97666V7.34955V26.57C0.32666 27.7095 1.61718 28.3547 2.52328 27.6683L4.87092 25.911C5.42008 25.4991 6.1889 25.5541 6.68314 26.0483L8.96213 28.341C9.49756 28.8764 10.3762 28.8764 10.9116 28.341L13.2181 26.0346C13.6986 25.5541 14.4674 25.4991 15.0028 25.911L17.3505 27.6683C18.2566 28.341 19.5471 27.6958 19.5471 26.57V3.23089C19.5471 1.72071 20.7827 0.485107 22.2929 0.485107H7.1911ZM6.60076 8.76363C7.35585 8.76363 7.97365 9.38143 7.97365 10.1365C7.97365 10.8916 7.35585 11.5094 6.60076 11.5094C5.84567 11.5094 5.22787 10.8916 5.22787 10.1365C5.22787 9.38143 5.84567 8.76363 6.60076 8.76363ZM13.273 17.0696C12.5042 17.0696 11.9001 16.4518 11.9001 15.6967C11.9001 14.9416 12.5179 14.3238 13.273 14.3238C14.0281 14.3238 14.6459 14.9416 14.6459 15.6967C14.6459 16.4518 14.0281 17.0696 13.273 17.0696ZM14.4125 9.82075L6.91653 17.3167C6.71059 17.5227 6.44974 17.6188 6.1889 17.6188C5.92805 17.6188 5.6672 17.5227 5.46126 17.3167C5.06313 16.9186 5.06313 16.2596 5.46126 15.8615L12.9572 8.36549C13.3554 7.96735 14.0144 7.96735 14.4125 8.36549C14.8106 8.76363 14.8106 9.42261 14.4125 9.82075Z" fill="#F48220"/>
<path d="M22.3066 0.485046V2.54438C23.2127 2.54438 24.0777 2.91506 24.7092 3.53286C25.3682 4.20557 25.7251 5.0705 25.7251 5.9766V9.29899C25.7251 10.3149 25.2721 10.7817 24.2424 10.7817H21.6065V3.24455C21.6065 2.86014 21.9222 2.54438 22.3066 2.54438V0.485046ZM22.3066 0.485046C20.7827 0.485046 19.5471 1.72065 19.5471 3.24455V12.841H24.2424C26.4116 12.841 27.7845 11.4682 27.7845 9.29899V5.9766C27.7845 4.46642 27.1667 3.09354 26.1782 2.09133C25.176 1.10285 23.8168 0.498775 22.3066 0.485046C22.3204 0.485046 22.3066 0.485046 22.3066 0.485046Z" fill="#F48220"/>
</svg>
