<svg width="22" height="13" viewBox="0 0 22 13" fill="none" xmlns="http://www.w3.org/2000/svg">
<g opacity="0.94">
<path fill-rule="evenodd" clip-rule="evenodd" d="M0.468754 1.53723C0.468754 1.01872 0.889088 0.598389 1.4076 0.598389H20.9606C21.4791 0.598389 21.8994 1.01872 21.8994 1.53723C21.8994 2.05574 21.4791 2.47608 20.9606 2.47608H1.4076C0.889088 2.47608 0.468754 2.05574 0.468754 1.53723ZM0.468567 6.61573C0.468567 6.09722 0.888901 5.67689 1.40741 5.67689H15.6027C16.1212 5.67689 16.5416 6.09722 16.5416 6.61573C16.5416 7.13424 16.1212 7.55458 15.6027 7.55458H1.40741C0.888901 7.55458 0.468567 7.13424 0.468567 6.61573ZM1.40741 10.7554C0.888901 10.7554 0.468567 11.1757 0.468567 11.6942C0.468567 12.2127 0.888902 12.6331 1.40741 12.6331H20.9604C21.4789 12.6331 21.8992 12.2127 21.8992 11.6942C21.8992 11.1757 21.4789 10.7554 20.9604 10.7554H1.40741Z" fill="white"/>
</g>
</svg>
