<svg width="15" height="15" viewBox="0 0 15 15" fill="none" xmlns="http://www.w3.org/2000/svg">
<path d="M1.51782 10.97H4.74455V15.0034H1.51782V10.97ZM10.3913 10.97H13.618V15.0034H10.3913V10.97Z" fill="#FFDC5D"/>
<path d="M13.618 12.0666C13.618 12.0666 12.408 12.8733 10.3913 12.4699V10.4532H13.618V12.0666ZM1.51782 12.0666C1.51782 12.0666 2.72784 12.8733 4.74455 12.4699V10.4532H1.51782V12.0666Z" fill="#F9CA55"/>
<path d="M1.91431 7.98667H5.14103V11.2134H1.91431V7.98667ZM9.9904 7.785H13.2171V11.0117H9.9904V7.785Z" fill="#EF9645"/>
<path d="M0.458283 5.25703C0.458283 5.25703 0.459493 4.76294 0.953182 4.76415C1.44768 4.76576 1.44606 5.25986 1.44606 5.25986L1.4384 7.55245C1.51705 7.51615 1.59933 7.48348 1.68565 7.45524L1.69573 4.27329C1.69573 4.27329 1.69735 3.77919 2.19063 3.78081C2.68432 3.78202 2.68311 4.27651 2.68311 4.27651L2.67464 7.2693C2.75491 7.26204 2.83759 7.25639 2.92068 7.25236L2.93197 3.78282C2.93197 3.78282 2.93318 3.28873 3.42727 3.29075C3.92137 3.29236 3.91935 3.78645 3.91935 3.78645L3.90806 7.25518C3.99276 7.26002 4.07423 7.26849 4.15571 7.27616L4.16579 4.0337C4.16579 4.0337 4.1674 3.53961 4.66069 3.54163C5.15438 3.54284 5.15236 4.03652 5.15236 4.03652L5.14268 7.46532L5.14147 7.74V7.98644C3.6596 7.98281 2.66778 9.2134 2.66335 10.4484C2.66335 10.6953 2.91019 10.6969 2.91019 10.6969C2.91423 9.2134 3.90523 8.23046 5.38751 8.2349L6.11393 6.54571C6.11393 6.54571 6.27325 6.07824 6.74153 6.23836C7.20859 6.39647 7.05008 6.86475 7.05008 6.86475L6.6899 8.11712C6.54712 8.61485 6.41361 9.1158 6.34343 9.62723C6.14256 11.0728 4.89907 12.1844 3.39944 12.1804C1.7639 12.1735 0.440939 10.8433 0.446183 9.20776C0.446586 9.12144 0.451829 9.03916 0.459896 8.96172L0.446989 8.96011L0.458283 5.25703ZM14.6736 5.25703C14.6736 5.25703 14.6724 4.76294 14.1787 4.76415C13.6842 4.76576 13.6854 5.25986 13.6854 5.25986L13.6931 7.55245C13.6149 7.51615 13.5322 7.48348 13.4463 7.45524L13.4362 4.27329C13.4362 4.27329 13.4346 3.77919 12.9413 3.78081C12.4472 3.78202 12.4484 4.27651 12.4484 4.27651L12.4573 7.2693C12.3774 7.26204 12.2947 7.25639 12.2112 7.25236L12.2003 3.78282C12.2003 3.78282 12.1987 3.28873 11.7046 3.29075C11.2105 3.29236 11.2126 3.78645 11.2126 3.78645L11.2239 7.25518C11.1392 7.26002 11.0577 7.26849 10.9762 7.27616L10.9661 4.0337C10.9661 4.0337 10.9641 3.53961 10.4708 3.54163C9.97713 3.54284 9.97914 4.03652 9.97914 4.03652L9.98882 7.46532L9.99003 7.74V7.98644C11.4719 7.98281 12.4637 9.2134 12.4686 10.4484C12.4686 10.6953 12.2217 10.6969 12.2217 10.6969C12.2173 9.2134 11.2263 8.23046 9.7444 8.2349L9.01798 6.54571C9.01798 6.54571 8.85907 6.07824 8.39038 6.23836C7.92372 6.39647 8.08183 6.86475 8.08183 6.86475L8.44201 8.11712C8.58479 8.61485 8.7183 9.1158 8.78848 9.62723C8.98934 11.0728 10.2324 12.1844 11.7325 12.1804C13.368 12.1735 14.6914 10.8433 14.6857 9.20776C14.6853 9.12144 14.6801 9.03916 14.672 8.96172L14.6849 8.96011L14.6736 5.25703Z" fill="#FFDC5D"/>
<path d="M9.80289 3.0879C9.71698 3.0879 9.62986 3.06047 9.55686 3.004C9.38019 2.86767 9.34793 2.61438 9.48425 2.43812L10.6858 0.883238C10.8209 0.707381 11.075 0.673501 11.2513 0.810637C11.428 0.946966 11.4602 1.20026 11.3239 1.37652L10.1223 2.9314C10.0433 3.03425 9.9239 3.0879 9.80289 3.0879ZM5.35808 3.0879C5.23748 3.0879 5.11809 3.03385 5.03863 2.931L3.83708 1.37652C3.70115 1.20026 3.73382 0.946966 3.91008 0.810637C4.08634 0.674711 4.33924 0.706978 4.47597 0.883238L5.67752 2.43812C5.81345 2.61438 5.78118 2.86767 5.60492 3.004C5.53111 3.06088 5.44439 3.0879 5.35808 3.0879ZM7.56798 2.90317C7.34534 2.90317 7.16464 2.72247 7.16464 2.49983V0.886465C7.16464 0.66382 7.34534 0.483124 7.56798 0.483124C7.79103 0.483124 7.97132 0.66382 7.97132 0.886465V2.49983C7.97132 2.72247 7.79103 2.90317 7.56798 2.90317Z" fill="#5DADEC"/>
</svg>
