<svg width="11" height="14" viewBox="0 0 11 14" fill="none" xmlns="http://www.w3.org/2000/svg">
<path d="M1.20581 6.10077H10.1945V6.84983H1.20581V6.10077ZM6.82377 11.7187C6.82377 12.5457 6.52714 13.2169 5.70018 13.2169C4.87284 13.2169 4.57659 12.5457 4.57659 11.7187C4.57659 10.8918 4.87284 10.9697 5.70018 10.9697C6.52714 10.9697 6.82377 10.8918 6.82377 11.7187Z" fill="#292F33"/>
<path d="M5.70014 12.0937C3.21813 12.0937 1.95483 12.5967 1.95483 13.2173V13.9663H9.44545V13.2173C9.44545 12.5967 8.18216 12.0937 5.70014 12.0937Z" fill="#66757F"/>
<path d="M5.69988 0.483124C3.83809 0.483124 2.3291 1.99211 2.3291 3.8539V6.47562H9.07066V3.8539C9.07066 1.99211 7.56167 0.483124 5.69988 0.483124Z" fill="#99AAB5"/>
<path d="M4.7637 1.98062C5.07397 1.98062 5.3255 1.72909 5.3255 1.41882C5.3255 1.10855 5.07397 0.857025 4.7637 0.857025C4.45343 0.857025 4.2019 1.10855 4.2019 1.41882C4.2019 1.72909 4.45343 1.98062 4.7637 1.98062Z" fill="#292F33"/>
<path d="M6.63601 1.98062C6.94629 1.98062 7.19781 1.72909 7.19781 1.41882C7.19781 1.10855 6.94629 0.857025 6.63601 0.857025C6.32574 0.857025 6.07422 1.10855 6.07422 1.41882C6.07422 1.72909 6.32574 1.98062 6.63601 1.98062Z" fill="#292F33"/>
<path d="M5.51272 3.47885C5.823 3.47885 6.07452 3.22732 6.07452 2.91705C6.07452 2.60678 5.823 2.35526 5.51272 2.35526C5.20245 2.35526 4.95093 2.60678 4.95093 2.91705C4.95093 3.22732 5.20245 3.47885 5.51272 3.47885Z" fill="#292F33"/>
<path d="M7.38504 3.47885C7.69531 3.47885 7.94683 3.22732 7.94683 2.91705C7.94683 2.60678 7.69531 2.35526 7.38504 2.35526C7.07477 2.35526 6.82324 2.60678 6.82324 2.91705C6.82324 3.22732 7.07477 3.47885 7.38504 3.47885Z" fill="#292F33"/>
<path d="M3.63992 3.47885C3.95019 3.47885 4.20172 3.22732 4.20172 2.91705C4.20172 2.60678 3.95019 2.35526 3.63992 2.35526C3.32965 2.35526 3.07812 2.60678 3.07812 2.91705C3.07812 3.22732 3.32965 3.47885 3.63992 3.47885Z" fill="#292F33"/>
<path d="M4.7637 4.97708C5.07397 4.97708 5.3255 4.72555 5.3255 4.41528C5.3255 4.10501 5.07397 3.85349 4.7637 3.85349C4.45343 3.85349 4.2019 4.10501 4.2019 4.41528C4.2019 4.72555 4.45343 4.97708 4.7637 4.97708Z" fill="#292F33"/>
<path d="M2.8909 4.97708C3.20117 4.97708 3.45269 4.72555 3.45269 4.41528C3.45269 4.10501 3.20117 3.85349 2.8909 3.85349C2.58063 3.85349 2.3291 4.10501 2.3291 4.41528C2.3291 4.72555 2.58063 4.97708 2.8909 4.97708Z" fill="#292F33"/>
<path d="M6.63601 4.97708C6.94629 4.97708 7.19781 4.72555 7.19781 4.41528C7.19781 4.10501 6.94629 3.85349 6.63601 3.85349C6.32574 3.85349 6.07422 4.10501 6.07422 4.41528C6.07422 4.72555 6.32574 4.97708 6.63601 4.97708Z" fill="#292F33"/>
<path d="M8.50931 4.97708C8.81958 4.97708 9.0711 4.72555 9.0711 4.41528C9.0711 4.10501 8.81958 3.85349 8.50931 3.85349C8.19903 3.85349 7.94751 4.10501 7.94751 4.41528C7.94751 4.72555 8.19903 4.97708 8.50931 4.97708Z" fill="#292F33"/>
<path d="M5.51272 6.47531C5.823 6.47531 6.07452 6.22378 6.07452 5.91351C6.07452 5.60324 5.823 5.35172 5.51272 5.35172C5.20245 5.35172 4.95093 5.60324 4.95093 5.91351C4.95093 6.22378 5.20245 6.47531 5.51272 6.47531Z" fill="#292F33"/>
<path d="M7.38504 6.47531C7.69531 6.47531 7.94683 6.22378 7.94683 5.91351C7.94683 5.60324 7.69531 5.35172 7.38504 5.35172C7.07477 5.35172 6.82324 5.60324 6.82324 5.91351C6.82324 6.22378 7.07477 6.47531 7.38504 6.47531Z" fill="#292F33"/>
<path d="M3.63992 6.47531C3.95019 6.47531 4.20172 6.22378 4.20172 5.91351C4.20172 5.60324 3.95019 5.35172 3.63992 5.35172C3.32965 5.35172 3.07812 5.60324 3.07812 5.91351C3.07812 6.22378 3.32965 6.47531 3.63992 6.47531Z" fill="#292F33"/>
<path d="M2.3291 6.1243V6.85014C2.3291 8.71193 3.83809 10.2209 5.69988 10.2209C7.56167 10.2209 9.07066 8.71193 9.07066 6.85014V6.1243H2.3291Z" fill="#66757F"/>
<path d="M10.1943 5.72644C9.98721 5.72644 9.81979 5.89423 9.81979 6.10097V6.85003C9.81979 9.12493 7.97523 10.9699 5.69995 10.9699C3.42468 10.9699 1.58012 9.12493 1.58012 6.85003V6.10097C1.58012 5.89423 1.41233 5.72644 1.20559 5.72644C0.998844 5.72644 0.831055 5.89423 0.831055 6.10097V6.85003C0.831055 9.53916 3.01082 11.7189 5.69995 11.7189C8.38909 11.7189 10.5689 9.53916 10.5689 6.85003V6.10097C10.5689 5.89423 10.4014 5.72644 10.1943 5.72644Z" fill="#66757F"/>
</svg>
