<svg width="11" height="11" viewBox="0 0 11 11" fill="none" xmlns="http://www.w3.org/2000/svg">
<path d="M10.4369 1.93502C10.2157 1.58411 9.97922 1.25609 9.73511 0.950957C9.45286 0.592423 8.91887 0.561909 8.59848 0.882302L6.30996 3.17082C6.47779 3.67429 6.5083 4.25405 6.35573 4.8567C6.08874 5.9323 5.2191 6.80194 4.1435 7.06893C3.54086 7.2215 2.9611 7.19099 2.45763 7.02316C2.45763 7.02316 1.36677 8.11402 0.581041 8.89974C0.199621 9.28116 0.321675 9.95246 0.832778 10.1508C1.64902 10.4636 2.49577 10.6238 3.3654 10.6238C4.72326 10.6238 6.04297 10.2271 7.24826 9.48713C8.47643 8.72429 9.58254 7.60292 10.4751 6.17641C11.1998 5.02452 11.1616 3.08691 10.4369 1.93502Z" fill="#F9F9F9"/>
</svg>
