<svg width="27" height="26" viewBox="0 0 27 26" fill="none" xmlns="http://www.w3.org/2000/svg">
<path d="M13.4016 -0.000244141C6.16361 -0.000244141 0.274902 5.83163 0.274902 12.9998C0.274902 20.1679 6.16361 25.9998 13.4016 25.9998C20.6396 25.9998 26.5283 20.1679 26.5283 12.9998C26.5283 5.83163 20.6396 -0.000244141 13.4016 -0.000244141ZM15.4211 18.9998H11.3821C11.1143 18.9998 10.8575 18.8944 10.6681 18.7069C10.4787 18.5193 10.3724 18.265 10.3724 17.9998C10.3724 17.7345 10.4787 17.4802 10.6681 17.2926C10.8575 17.1051 11.1143 16.9998 11.3821 16.9998H15.4211C15.6889 16.9998 15.9457 17.1051 16.1351 17.2926C16.3244 17.4802 16.4308 17.7345 16.4308 17.9998C16.4308 18.265 16.3244 18.5193 16.1351 18.7069C15.9457 18.8944 15.6889 18.9998 15.4211 18.9998ZM18.4503 14.9998H8.35286C8.08506 14.9998 7.82823 14.8944 7.63886 14.7069C7.4495 14.5193 7.34312 14.265 7.34312 13.9998C7.34312 13.7345 7.4495 13.4802 7.63886 13.2926C7.82823 13.1051 8.08506 12.9998 8.35286 12.9998H18.4503C18.7181 12.9998 18.9749 13.1051 19.1643 13.2926C19.3537 13.4802 19.4601 13.7345 19.4601 13.9998C19.4601 14.265 19.3537 14.5193 19.1643 14.7069C18.9749 14.8944 18.7181 14.9998 18.4503 14.9998ZM20.4698 10.9998H6.33337C6.06557 10.9998 5.80874 10.8944 5.61938 10.7069C5.43001 10.5193 5.32363 10.265 5.32363 9.99975C5.32363 9.73454 5.43001 9.48019 5.61938 9.29265C5.80874 9.10511 6.06557 8.99975 6.33337 8.99975H20.4698C20.7376 8.99975 20.9944 9.10511 21.1838 9.29265C21.3732 9.48019 21.4795 9.73454 21.4795 9.99975C21.4795 10.265 21.3732 10.5193 21.1838 10.7069C20.9944 10.8944 20.7376 10.9998 20.4698 10.9998Z" fill="#FEA500"/>
</svg>
