<svg width="26" height="26" viewBox="0 0 26 26" fill="none" xmlns="http://www.w3.org/2000/svg">
<path d="M24.2834 7.68129L15.912 0.984145C14.276 -0.319497 11.7198 -0.332277 10.0967 0.971364L1.72526 7.68129C0.523866 8.63985 -0.20464 10.557 0.050976 12.0651L1.66136 21.7018C2.032 23.8618 4.03859 25.5616 6.2241 25.5616H19.7718C21.9317 25.5616 23.9766 23.8234 24.3473 21.689L25.9577 12.0523C26.1877 10.557 25.4592 8.63985 24.2834 7.68129ZM13.9565 20.4493C13.9565 20.9733 13.5219 21.4079 12.9979 21.4079C12.4739 21.4079 12.0394 20.9733 12.0394 20.4493V16.6151C12.0394 16.0911 12.4739 15.6565 12.9979 15.6565C13.5219 15.6565 13.9565 16.0911 13.9565 16.6151V20.4493Z" fill="#FEA500"/>
</svg>
