<svg width="18" height="18" viewBox="0 0 18 18" fill="none" xmlns="http://www.w3.org/2000/svg">
<path d="M16.752 5.27728L11.0005 0.676138C9.8766 -0.219504 8.12044 -0.228285 7.00528 0.667357L1.25385 5.27728C0.428454 5.93584 -0.0720516 7.25296 0.103565 8.2891L1.20995 14.9098C1.46459 16.3938 2.84318 17.5616 4.34469 17.5616H13.6523C15.1363 17.5616 16.5412 16.3674 16.7959 14.901L17.9023 8.28032C18.0603 7.25296 17.5598 5.93584 16.752 5.27728ZM9.65708 14.0493C9.65708 14.4093 9.35854 14.7079 8.99852 14.7079C8.63851 14.7079 8.33996 14.4093 8.33996 14.0493V11.4151C8.33996 11.0551 8.63851 10.7565 8.99852 10.7565C9.35854 10.7565 9.65708 11.0551 9.65708 11.4151V14.0493Z" fill="white"/>
</svg>
