<svg width="33" height="33" viewBox="0 0 33 33" fill="none" xmlns="http://www.w3.org/2000/svg">
<g clip-path="url(#clip0_0_2620)">
<path d="M5.46452 18.1764C6.94021 18.1764 8.14759 16.969 8.14759 15.4934C8.14759 14.0177 6.94021 12.8103 5.46452 12.8103C3.98884 12.8103 2.78146 14.0177 2.78146 15.4934C2.78146 16.969 3.98884 18.1764 5.46452 18.1764ZM6.98046 19.6521C6.48409 19.5716 5.98772 19.518 5.46452 19.518C4.13641 19.518 2.87536 19.7997 1.73506 20.2961C0.742325 20.7253 0.0983887 21.6912 0.0983887 22.7779V24.8841H6.13529V22.7242C6.13529 21.6108 6.44384 20.5644 6.98046 19.6521ZM26.9291 18.1764C28.4048 18.1764 29.6121 16.969 29.6121 15.4934C29.6121 14.0177 28.4048 12.8103 26.9291 12.8103C25.4534 12.8103 24.246 14.0177 24.246 15.4934C24.246 16.969 25.4534 18.1764 26.9291 18.1764ZM32.2952 22.7779C32.2952 21.6912 31.6513 20.7253 30.6585 20.2961C29.5182 19.7997 28.2572 19.518 26.9291 19.518C26.4059 19.518 25.9095 19.5716 25.4131 19.6521C25.9498 20.5644 26.2583 21.6108 26.2583 22.7242V24.8841H32.2952V22.7779ZM21.8849 19.0484C20.3153 18.3508 18.3835 17.841 16.1968 17.841C14.0101 17.841 12.0783 18.3642 10.5087 19.0484C9.05984 19.6924 8.14759 21.1412 8.14759 22.7242V24.8841H24.246V22.7242C24.246 21.1412 23.3338 19.6924 21.8849 19.0484ZM10.9246 22.201C11.0453 21.8925 11.099 21.6778 12.1454 21.2754C13.4467 20.7656 14.815 20.5241 16.1968 20.5241C17.5786 20.5241 18.9469 20.7656 20.2482 21.2754C21.2812 21.6778 21.3349 21.8925 21.469 22.201H10.9246ZM16.1968 11.4688C16.9346 11.4688 17.5383 12.0724 17.5383 12.8103C17.5383 13.5481 16.9346 14.1518 16.1968 14.1518C15.459 14.1518 14.8553 13.5481 14.8553 12.8103C14.8553 12.0724 15.459 11.4688 16.1968 11.4688ZM16.1968 8.78569C13.9699 8.78569 12.1722 10.5833 12.1722 12.8103C12.1722 15.0372 13.9699 16.8349 16.1968 16.8349C18.4237 16.8349 20.2214 15.0372 20.2214 12.8103C20.2214 10.5833 18.4237 8.78569 16.1968 8.78569Z" fill="white"/>
</g>
<defs>
<clipPath id="clip0_0_2620">
<rect width="32.1968" height="32.1968" fill="white" transform="translate(0.0985107 0.736237)"/>
</clipPath>
</defs>
</svg>
