<svg width="10" height="12" viewBox="0 0 10 12" fill="none" xmlns="http://www.w3.org/2000/svg">
<path d="M9.81706 3.75854C9.22804 1.16683 6.9673 0 4.98145 0C4.98145 0 4.98145 0 4.97584 0C2.9956 0 0.729256 1.16122 0.140232 3.75293C-0.51611 6.64756 1.25657 9.09902 2.86096 10.6417C3.4556 11.2139 4.21852 11.5 4.98145 11.5C5.74438 11.5 6.50731 11.2139 7.09633 10.6417C8.70072 9.09902 10.4734 6.65317 9.81706 3.75854ZM4.98145 6.56902C4.00535 6.56902 3.21438 5.77805 3.21438 4.80195C3.21438 3.82585 4.00535 3.03488 4.98145 3.03488C5.95755 3.03488 6.74852 3.82585 6.74852 4.80195C6.74852 5.77805 5.95755 6.56902 4.98145 6.56902Z" fill="#477BFF"/>
</svg>
