<svg width="14" height="13" viewBox="0 0 14 13" fill="none" xmlns="http://www.w3.org/2000/svg">
<g clip-path="url(#clip0_0_14240)">
<path d="M11.7284 5.31159C11.7284 8.85889 6.85114 11.8994 6.85114 11.8994C6.85114 11.8994 1.97388 8.85889 1.97388 5.31159C1.97388 4.10199 2.48773 2.94193 3.40239 2.08661C4.31706 1.23129 5.55761 0.750778 6.85114 0.750778C8.14467 0.750778 9.38522 1.23129 10.2999 2.08661C11.2145 2.94193 11.7284 4.10199 11.7284 5.31159Z" stroke="#EE6224" stroke-width="1.37685" stroke-linecap="round" stroke-linejoin="round"/>
<path d="M6.85085 6.83136C7.74873 6.83136 8.47661 6.15071 8.47661 5.31109C8.47661 4.47147 7.74873 3.79082 6.85085 3.79082C5.95297 3.79082 5.2251 4.47147 5.2251 5.31109C5.2251 6.15071 5.95297 6.83136 6.85085 6.83136Z" stroke="#EE6224" stroke-width="1.37685" stroke-linecap="round" stroke-linejoin="round"/>
</g>
<defs>
<clipPath id="clip0_0_14240">
<rect width="13.006" height="12.1622" fill="white" transform="translate(0.348389 0.243668)"/>
</clipPath>
</defs>
</svg>
