<svg width="22" height="28" viewBox="0 0 22 28" fill="none" xmlns="http://www.w3.org/2000/svg">
<path d="M11.8053 12.4668H-0.000514984V4.1556C0.000679016 3.05383 0.435663 1.99754 1.209 1.21847C1.98234 0.439409 3.03086 0.00120262 4.12453 0L17.8747 0C18.9683 0.00120262 20.0168 0.439409 20.7902 1.21847C21.5635 1.99754 21.9985 3.05383 21.9997 4.1556V23.5484C21.9985 24.6501 21.5635 25.7064 20.7902 26.4855C20.0168 27.2646 18.9683 27.7028 17.8747 27.704H4.12453C3.03086 27.7028 1.98234 27.2646 1.209 26.4855C0.435663 25.7064 0.000679016 24.6501 -0.000514984 23.5484V15.2372H11.8053L8.65236 18.4134C8.52338 18.5418 8.42085 18.6945 8.3507 18.8629C8.28054 19.0313 8.24413 19.212 8.24356 19.3946C8.243 19.5772 8.27828 19.7582 8.3474 19.927C8.41651 20.0958 8.51808 20.2492 8.64626 20.3783C8.77445 20.5075 8.92672 20.6098 9.09431 20.6794C9.2619 20.749 9.4415 20.7846 9.62277 20.784C9.80405 20.7834 9.98342 20.7467 10.1506 20.676C10.3177 20.6053 10.4693 20.5021 10.5967 20.3721L16.0968 14.8313C16.2245 14.7027 16.3258 14.5501 16.3949 14.382C16.464 14.214 16.4996 14.0338 16.4996 13.8519C16.4996 13.67 16.464 13.4899 16.3949 13.3219C16.3258 13.1538 16.2245 13.0012 16.0968 12.8726L10.5967 7.33177C10.3383 7.07473 9.98947 6.93111 9.62634 6.93227C9.2632 6.93343 8.91527 7.07927 8.6585 7.33796C8.40173 7.59664 8.25697 7.94716 8.25584 8.31298C8.2547 8.67881 8.39728 9.03023 8.65244 9.29053L11.8053 12.4668Z" fill="#FEA500"/>
</svg>
