<svg width="28" height="24" viewBox="0 0 28 24" fill="none" xmlns="http://www.w3.org/2000/svg">
<path d="M7.48806 0.196314C7.7396 0.0591111 8.00689 0.270186 8.00689 0.55671V19.5653C8.00689 19.8783 7.79317 20.143 7.51639 20.2893C7.50689 20.2943 7.49745 20.2993 7.48806 20.3045L4.1928 22.1835C1.89312 23.5016 9.15527e-05 22.4078 9.15527e-05 19.7436V6.09975C9.15527e-05 5.21634 0.6311 4.12259 1.41636 3.67387L7.48806 0.196314Z" fill="#FEA500"/>
<path opacity="0.6" d="M17.433 3.74732C17.6718 3.8656 17.823 4.10908 17.823 4.37561V22.8195C17.823 23.3362 17.283 23.6754 16.8175 23.4511L10.858 20.5799C10.6154 20.463 10.4612 20.2176 10.4612 19.9483V1.42423C10.4612 0.904197 11.0075 0.565146 11.4735 0.795934L17.433 3.74732Z" fill="#FEA500"/>
<path d="M27.6382 4.29099V17.9348C27.6382 18.8182 27.0072 19.912 26.222 20.3607L21.3262 23.1665C20.8588 23.4344 20.2765 23.0969 20.2765 22.5582V4.06708C20.2765 3.81536 20.4114 3.58296 20.63 3.45818L23.4455 1.85109C25.7452 0.532986 27.6382 1.62673 27.6382 4.29099Z" fill="#FEA500"/>
</svg>
