<svg width="27" height="27" viewBox="0 0 27 27" fill="none" xmlns="http://www.w3.org/2000/svg">
<path d="M20.1171 26.3178H7.03147C6.49496 26.3178 6.05005 25.8729 6.05005 25.3364C6.05005 24.7999 6.49496 24.355 7.03147 24.355H20.1171C20.6536 24.355 21.0985 24.7999 21.0985 25.3364C21.0985 25.8729 20.6536 26.3178 20.1171 26.3178Z" fill="url(#paint0_linear_0_8528)"/>
<path d="M24.5013 4.75295L19.267 8.49544C18.5735 8.99269 17.579 8.69172 17.278 7.8935L14.8049 1.29835C14.3861 0.159907 12.7766 0.159907 12.3578 1.29835L9.87158 7.88041C9.57061 8.69172 8.58919 8.99269 7.89566 8.48235L2.66141 4.73987C1.61457 4.00707 0.227492 5.04084 0.659317 6.2578L6.10293 21.5025C6.28613 22.0259 6.78338 22.3662 7.33298 22.3662H19.8036C20.3532 22.3662 20.8504 22.0129 21.0336 21.5025L26.4772 6.2578C26.9221 5.04084 25.5351 4.00707 24.5013 4.75295ZM16.8462 16.831H10.3034C9.7669 16.831 9.32199 16.3861 9.32199 15.8495C9.32199 15.313 9.7669 14.8681 10.3034 14.8681H16.8462C17.3827 14.8681 17.8276 15.313 17.8276 15.8495C17.8276 16.3861 17.3827 16.831 16.8462 16.831Z" fill="url(#paint1_linear_0_8528)"/>
<defs>
<linearGradient id="paint0_linear_0_8528" x1="20.7961" y1="24.7715" x2="19.3431" y2="29.5418" gradientUnits="userSpaceOnUse">
<stop stop-color="#FF9111"/>
<stop offset="1" stop-color="#FFC700"/>
</linearGradient>
<linearGradient id="paint1_linear_0_8528" x1="26.0404" y1="5.09596" x2="2.54226" y2="17.0241" gradientUnits="userSpaceOnUse">
<stop stop-color="#FF9111"/>
<stop offset="1" stop-color="#FFC700"/>
</linearGradient>
</defs>
</svg>
