<svg width="20" height="20" viewBox="0 0 20 20" fill="none" xmlns="http://www.w3.org/2000/svg">
<g filter="url(#filter0_b_0_3730)">
<path d="M15.484 12.0104L14.6922 10.696C14.5259 10.403 14.3755 9.84878 14.3755 9.52413V7.52084C14.3755 6.54649 14.0758 5.64162 13.5642 4.89262C12.6557 3.56275 11.2747 2.12067 9.66416 2.12067C8.03965 2.12067 6.66196 3.60234 5.76841 4.95902C5.28334 5.69549 5.00037 6.57568 5.00037 7.52084V9.52413C5.00037 9.84878 4.84992 10.403 4.68364 10.6881L3.88391 12.0104C3.56718 12.5409 3.49592 13.1269 3.69387 13.6653C3.88391 14.1958 4.33524 14.6076 4.92118 14.8055C6.45731 15.3281 8.07261 15.5815 9.68791 15.5815C11.3032 15.5815 12.9185 15.3281 14.4546 14.8135C15.0089 14.6313 15.4365 14.2117 15.6424 13.6653C15.8482 13.119 15.7928 12.5172 15.484 12.0104Z" fill="white"/>
</g>
<g filter="url(#filter1_b_0_3730)">
<path d="M11.5247 16.4288C11.7028 16.4065 11.838 16.5798 11.7501 16.7363C11.3413 17.4645 10.563 17.957 9.67188 17.957C9.04635 17.957 8.42873 17.7036 7.99323 17.2523C7.81745 17.0875 7.67216 16.8846 7.56264 16.6674C7.49725 16.5377 7.61191 16.3924 7.75569 16.4129C7.93781 16.4367 8.12784 16.4605 8.31788 16.4763C8.76921 16.5159 9.22847 16.5396 9.68772 16.5396C10.1391 16.5396 10.5904 16.5159 11.0338 16.4763C11.2001 16.4605 11.3664 16.4525 11.5247 16.4288Z" fill="white"/>
</g>
<rect x="10.8596" y="1.72476" width="7.12633" height="7.12633" rx="3.56317" fill="#FF445D"/>
<rect x="10.8596" y="1.72476" width="7.12633" height="7.12633" rx="3.56317" stroke="#2C3658" stroke-width="0.791815"/>
<path d="M14.3745 7.08187C15.1616 7.08187 15.6976 6.56035 15.6976 5.79739C15.6976 5.10203 15.2292 4.62397 14.5242 4.62397C14.2827 4.62397 14.0703 4.68675 13.9013 4.79781L14.0896 4.06383H15.4851V3.49402H13.6453L13.2107 5.34348L13.7564 5.45937C13.8819 5.27587 14.1282 5.14066 14.3986 5.14066C14.8236 5.14066 15.0698 5.42074 15.0698 5.83119C15.0698 6.26096 14.8043 6.53138 14.389 6.53138C13.9978 6.53138 13.7612 6.29476 13.7612 5.89397H13.1479C13.1479 6.60864 13.6357 7.08187 14.3745 7.08187Z" fill="white"/>
<defs>
<filter id="filter0_b_0_3730" x="-14.2871" y="-15.7499" width="47.9222" height="49.202" filterUnits="userSpaceOnUse" color-interpolation-filters="sRGB">
<feFlood flood-opacity="0" result="BackgroundImageFix"/>
<feGaussianBlur in="BackgroundImageFix" stdDeviation="8.93529"/>
<feComposite in2="SourceAlpha" operator="in" result="effect1_backgroundBlur_0_3730"/>
<feBlend mode="normal" in="SourceGraphic" in2="effect1_backgroundBlur_0_3730" result="shape"/>
</filter>
<filter id="filter1_b_0_3730" x="-10.3268" y="-1.45961" width="39.975" height="37.2872" filterUnits="userSpaceOnUse" color-interpolation-filters="sRGB">
<feFlood flood-opacity="0" result="BackgroundImageFix"/>
<feGaussianBlur in="BackgroundImageFix" stdDeviation="8.93529"/>
<feComposite in2="SourceAlpha" operator="in" result="effect1_backgroundBlur_0_3730"/>
<feBlend mode="normal" in="SourceGraphic" in2="effect1_backgroundBlur_0_3730" result="shape"/>
</filter>
</defs>
</svg>
