<svg width="17" height="22" viewBox="0 0 17 22" fill="none" xmlns="http://www.w3.org/2000/svg">
<path d="M8.4 1.9C6.54348 1.9 4.76301 2.6375 3.45025 3.95025C2.1375 5.26301 1.4 7.04348 1.4 8.9V10.3H2.8C3.1713 10.3 3.5274 10.4475 3.78995 10.7101C4.0525 10.9726 4.2 11.3287 4.2 11.7V15.9C4.2 16.2713 4.0525 16.6274 3.78995 16.8899C3.5274 17.1525 3.1713 17.3 2.8 17.3H1.4C1.0287 17.3 0.672601 17.1525 0.41005 16.8899C0.1475 16.6274 0 16.2713 0 15.9V8.9C-1.64375e-08 7.7969 0.217272 6.70459 0.639412 5.68546C1.06155 4.66632 1.68029 3.74032 2.4603 2.9603C3.24031 2.18029 4.16632 1.56155 5.18546 1.13941C6.20459 0.717272 7.2969 0.5 8.4 0.5C9.5031 0.5 10.5954 0.717272 11.6145 1.13941C12.6337 1.56155 13.5597 2.18029 14.3397 2.9603C15.1197 3.74032 15.7384 4.66632 16.1606 5.68546C16.5827 6.70459 16.8 7.7969 16.8 8.9V17.3C16.8 18.2283 16.4313 19.1185 15.7749 19.7749C15.1185 20.4313 14.2283 20.8 13.3 20.8H10.3124C10.1895 21.0128 10.0128 21.1896 9.79998 21.3124C9.58716 21.4353 9.34575 21.5 9.1 21.5H7.7C7.3287 21.5 6.9726 21.3525 6.71005 21.0899C6.4475 20.8274 6.3 20.4713 6.3 20.1C6.3 19.7287 6.4475 19.3726 6.71005 19.1101C6.9726 18.8475 7.3287 18.7 7.7 18.7H9.1C9.34575 18.7 9.58716 18.7647 9.79998 18.8876C10.0128 19.0104 10.1895 19.1872 10.3124 19.4H13.3C13.857 19.4 14.3911 19.1788 14.7849 18.7849C15.1788 18.3911 15.4 17.857 15.4 17.3H14C13.6287 17.3 13.2726 17.1525 13.0101 16.8899C12.7475 16.6274 12.6 16.2713 12.6 15.9V11.7C12.6 11.3287 12.7475 10.9726 13.0101 10.7101C13.2726 10.4475 13.6287 10.3 14 10.3H15.4V8.9C15.4 7.98075 15.2189 7.07049 14.8672 6.22122C14.5154 5.37194 13.9998 4.60026 13.3497 3.95025C12.6997 3.30024 11.9281 2.78463 11.0788 2.43284C10.2295 2.08106 9.31925 1.9 8.4 1.9Z" fill="#FEA500"/>
</svg>
