<svg width="17" height="16" viewBox="0 0 17 16" fill="none" xmlns="http://www.w3.org/2000/svg">
<path d="M5.52849 2.07939C4.88837 -0.689127 0.719591 -0.697129 0.0794722 2.07939C-0.296598 3.70369 0.735594 5.07995 1.63176 5.9361C2.28788 6.55222 3.32007 6.55222 3.9762 5.9361C4.87236 5.07995 5.89655 3.70369 5.52849 2.07939ZM2.83198 3.35963C2.3919 3.35963 2.03184 2.99956 2.03184 2.55948C2.03184 2.11939 2.3839 1.75933 2.82398 1.75933H2.83198C3.28007 1.75933 3.63213 2.11939 3.63213 2.55948C3.63213 2.99956 3.28007 3.35963 2.83198 3.35963Z" fill="#FEA500"/>
<path d="M15.9548 11.6812C15.3147 8.91268 11.1299 8.90468 10.4818 11.6812C10.1057 13.3055 11.1379 14.6818 12.0421 15.5379C12.6982 16.154 13.7384 16.154 14.3945 15.5379C15.2987 14.6818 16.3309 13.3055 15.9548 11.6812ZM13.2503 12.9614C12.8102 12.9614 12.4502 12.6014 12.4502 12.1613C12.4502 11.7212 12.8022 11.3611 13.2423 11.3611H13.2503C13.6904 11.3611 14.0505 11.7212 14.0505 12.1613C14.0505 12.6014 13.6904 12.9614 13.2503 12.9614Z" fill="#FEA500"/>
<path opacity="0.5" d="M8.02439 14.2017H5.87999C4.95182 14.2017 4.14367 13.6415 3.82361 12.7774C3.49555 11.9132 3.7356 10.961 4.43173 10.3449L10.8249 4.7519C11.209 4.41583 11.217 3.95975 11.105 3.64769C10.9849 3.33563 10.6809 2.99957 10.1688 2.99957H8.02439C7.69633 2.99957 7.42428 2.72752 7.42428 2.39946C7.42428 2.0714 7.69633 1.79935 8.02439 1.79935H10.1688C11.097 1.79935 11.9051 2.35945 12.2252 3.22361C12.5532 4.08777 12.3132 5.03995 11.6171 5.65606L5.22387 11.2491C4.8398 11.5852 4.8318 12.0413 4.94382 12.3533C5.06384 12.6654 5.3679 13.0014 5.87999 13.0014H8.02439C8.35245 13.0014 8.6245 13.2735 8.6245 13.6015C8.6245 13.9296 8.35245 14.2017 8.02439 14.2017Z" fill="#FEA500"/>
</svg>
