<svg width="16" height="17" viewBox="0 0 16 17" fill="none" xmlns="http://www.w3.org/2000/svg">
<path d="M15.8182 1.13477C15.5894 0.905922 15.2156 0.905922 14.9868 1.13477L0.912362 15.2168C0.68351 15.4456 0.68351 15.8194 0.912362 16.0483C1.02679 16.1551 1.17173 16.2161 1.32429 16.2161C1.47686 16.2161 1.6218 16.1551 1.73623 16.0407L15.8182 1.95864C16.0547 1.72979 16.0547 1.36363 15.8182 1.13477Z" fill="#FFBD42"/>
<path d="M13.1332 3.81996L10.5472 6.40598C9.9903 5.84148 9.21984 5.50583 8.36546 5.50583C6.65669 5.50583 5.28358 6.88657 5.28358 8.58771C5.28358 9.44209 5.62686 10.2126 6.18373 10.7694L3.60534 13.3555H3.59771C2.75096 12.6689 1.97286 11.7916 1.30919 10.7542C0.546351 9.55651 0.546351 7.61127 1.30919 6.41361C2.19408 5.02524 3.27732 3.93438 4.4826 3.1868C5.68789 2.45448 7.0076 2.05017 8.36546 2.05017C10.0666 2.05017 11.7143 2.6757 13.1332 3.81996Z" fill="#FFBD42"/>
<path d="M15.4369 6.43645C15.2157 6.08555 14.9792 5.75753 14.7351 5.45239C14.4529 5.09386 13.9189 5.06334 13.5985 5.38374L11.31 7.67225C11.4778 8.17573 11.5083 8.75549 11.3557 9.35813C11.0887 10.4337 10.2191 11.3034 9.1435 11.5704C8.54086 11.7229 7.9611 11.6924 7.45763 11.5246C7.45763 11.5246 6.36677 12.6155 5.58104 13.4012C5.19962 13.7826 5.32168 14.4539 5.83278 14.6522C6.64902 14.965 7.49577 15.1252 8.3654 15.1252C9.72326 15.1252 11.043 14.7285 12.2483 13.9886C13.4764 13.2257 14.5825 12.1044 15.4751 10.6778C16.1998 9.52595 16.1616 7.58834 15.4369 6.43645Z" fill="#FFBD42"/>
</svg>
