<svg width="16" height="16" viewBox="0 0 16 16" fill="none" xmlns="http://www.w3.org/2000/svg">
<path d="M12.419 6.49342V5.53987C12.419 3.4802 11.9232 0.749237 7.6284 0.749237C3.33361 0.749237 2.83776 3.4802 2.83776 5.53987V6.49342C0.701812 6.76041 0 7.84365 0 10.506V11.9248C0 15.0525 0.95355 16.006 4.08119 16.006H11.1756C14.3032 16.006 15.2568 15.0525 15.2568 11.9248V10.506C15.2568 7.84365 14.555 6.76041 12.419 6.49342ZM7.6284 13.5192C6.35445 13.5192 5.32462 12.4817 5.32462 11.2154C5.32462 9.94145 6.36208 8.91162 7.6284 8.91162C8.89471 8.91162 9.93217 9.94908 9.93217 11.2154C9.93217 12.4893 8.90234 13.5192 7.6284 13.5192ZM4.08119 6.42476C4.02016 6.42476 3.96677 6.42476 3.90574 6.42476V5.53987C3.90574 3.30475 4.5389 1.81721 7.6284 1.81721C10.7179 1.81721 11.3511 3.30475 11.3511 5.53987V6.43239C11.29 6.43239 11.2366 6.43239 11.1756 6.43239H4.08119V6.42476Z" fill="#F9F9F9"/>
</svg>
