<svg width="16" height="14" viewBox="0 0 16 14" fill="none" xmlns="http://www.w3.org/2000/svg">
<path d="M13.1332 1.81996L10.5472 4.40598C9.9903 3.84148 9.21984 3.50583 8.36546 3.50583C6.6567 3.50583 5.28358 4.88657 5.28358 6.58771C5.28358 7.44209 5.62686 8.21255 6.18373 8.76943L3.60534 11.3555H3.59771C2.75096 10.6689 1.97286 9.79163 1.30919 8.75417C0.546351 7.55651 0.546351 5.61127 1.30919 4.41361C2.19408 3.02524 3.27732 1.93438 4.4826 1.1868C5.68789 0.454476 7.0076 0.0501709 8.36546 0.0501709C10.0666 0.0501709 11.7143 0.675699 13.1332 1.81996Z" fill="#FFBD42"/>
<path d="M15.4369 4.43652C15.2157 4.08561 14.9792 3.75759 14.7351 3.45245C14.4529 3.09392 13.9189 3.0634 13.5985 3.3838L11.31 5.67232C11.4778 6.17579 11.5083 6.75555 11.3557 7.35819C11.0887 8.43379 10.2191 9.30343 9.1435 9.57043C8.54086 9.72299 7.9611 9.69248 7.45763 9.52466C7.45763 9.52466 6.36677 10.6155 5.58104 11.4012C5.19962 11.7827 5.32168 12.454 5.83278 12.6523C6.64902 12.9651 7.49577 13.1253 8.3654 13.1253C9.72326 13.1253 11.043 12.7286 12.2483 11.9886C13.4764 11.2258 14.5825 10.1044 15.4751 8.6779C16.1998 7.52602 16.1616 5.5884 15.4369 4.43652Z" fill="#FFBD42"/>
</svg>
