<svg width="24" height="24" viewBox="0 0 24 24" fill="none" xmlns="http://www.w3.org/2000/svg">
<path d="M11.2279 14.8653L9.47413 16.6191C9.1044 16.9889 8.51663 16.9889 8.13743 16.6286C8.03315 16.5243 7.92887 16.4295 7.82458 16.3253C6.84813 15.3393 5.96648 14.306 5.17963 13.2253C4.40226 12.1445 3.77657 11.0638 3.32153 9.99254C2.87596 8.9118 2.64844 7.87847 2.64844 6.89254C2.64844 6.24789 2.7622 5.63168 2.98972 5.06287C3.21724 4.48459 3.57749 3.9537 4.07994 3.47969C4.68666 2.88245 5.35027 2.58856 6.0518 2.58856C6.31725 2.58856 6.58269 2.64544 6.81969 2.7592C7.06617 2.87297 7.28422 3.04361 7.45486 3.29009L9.65425 6.39009C9.82489 6.62709 9.94813 6.84514 10.0335 7.0537C10.1188 7.25278 10.1662 7.45186 10.1662 7.63199C10.1662 7.85951 10.0998 8.08703 9.96709 8.30508C9.84385 8.52312 9.66373 8.75064 9.4362 8.97816L8.71572 9.72709C8.61143 9.83138 8.56403 9.95462 8.56403 10.1063C8.56403 10.1821 8.57351 10.2485 8.59247 10.3243C8.62091 10.4002 8.64936 10.4571 8.66832 10.5139C8.83896 10.8268 9.13284 11.2344 9.54997 11.7274C9.97657 12.2204 10.4316 12.7228 10.9246 13.2253C11.0194 13.3201 11.1237 13.4149 11.2185 13.5097C11.5977 13.8794 11.6072 14.4861 11.2279 14.8653Z" fill="#9CA3AF"/>
<path d="M21.5804 18.0696C21.5804 18.335 21.533 18.61 21.4382 18.8754C21.4098 18.9512 21.3813 19.0271 21.3434 19.1029C21.1823 19.4442 20.9737 19.7665 20.6988 20.0699C20.2343 20.5818 19.7223 20.9516 19.144 21.1886C19.1346 21.1886 19.1251 21.198 19.1156 21.198C18.5563 21.4256 17.9495 21.5488 17.2954 21.5488C16.3284 21.5488 15.2951 21.3213 14.2049 20.8568C13.1147 20.3922 12.0245 19.7665 10.9437 18.9797C10.574 18.7048 10.2043 18.4298 9.85352 18.136L12.9535 15.036C13.219 15.235 13.456 15.3867 13.655 15.491C13.7024 15.51 13.7593 15.5384 13.8257 15.5668C13.9015 15.5953 13.9774 15.6048 14.0627 15.6048C14.2239 15.6048 14.3471 15.5479 14.4514 15.4436L15.1719 14.7326C15.4089 14.4956 15.6364 14.3155 15.8544 14.2017C16.0725 14.069 16.2905 14.0026 16.5275 14.0026C16.7076 14.0026 16.8972 14.0405 17.1058 14.1259C17.3144 14.2112 17.5324 14.3344 17.7694 14.4956L20.9073 16.7234C21.1538 16.8941 21.3245 17.0931 21.4287 17.3301C21.5235 17.5671 21.5804 17.8042 21.5804 18.0696Z" fill="#9CA3AF"/>
</svg>
