<svg width="21" height="18" viewBox="0 0 21 18" fill="none" xmlns="http://www.w3.org/2000/svg">
<path d="M5.61093 0.147103C5.79941 0.0442935 5.9997 0.202458 5.9997 0.417157V14.6608C5.9997 14.8953 5.83955 15.0937 5.63215 15.2033C5.62504 15.207 5.61796 15.2108 5.61093 15.2147L3.1417 16.6226C1.41849 17.6103 0 16.7908 0 14.7944V4.5707C0 3.90874 0.472831 3.08916 1.06124 2.75293L5.61093 0.147103Z" fill="white"/>
<path d="M13.0626 2.80791C13.2416 2.89654 13.3548 3.07899 13.3548 3.2787V17.0992C13.3548 17.4864 12.9502 17.7405 12.6014 17.5725L8.13579 15.421C7.95401 15.3334 7.83845 15.1495 7.83845 14.9477V1.06716C7.83845 0.677482 8.24777 0.423422 8.59697 0.596358L13.0626 2.80791Z" fill="white" fill-opacity="0.6"/>
<path d="M20.71 3.21529V13.439C20.71 14.1009 20.2371 14.9205 19.6487 15.2567L15.9802 17.3592C15.63 17.5599 15.1936 17.3071 15.1936 16.9034V3.04751C15.1936 2.85889 15.2947 2.68475 15.4585 2.59124L17.5683 1.38701C19.2915 0.399321 20.71 1.21889 20.71 3.21529Z" fill="white"/>
</svg>
