<svg width="20" height="20" viewBox="0 0 20 20" fill="none" xmlns="http://www.w3.org/2000/svg">
<path d="M9.71413 16.7957C13.9104 16.7957 17.3122 13.3939 17.3122 9.19765C17.3122 5.00137 13.9104 1.59961 9.71413 1.59961C5.51785 1.59961 2.11609 5.00137 2.11609 9.19765C2.11609 13.3939 5.51785 16.7957 9.71413 16.7957Z" fill="#BF8745" fill-opacity="0.68"/>
<path d="M17.5522 17.5955C17.4083 17.5955 17.2643 17.5395 17.1603 17.4355L15.6727 15.9479C15.4568 15.7319 15.4568 15.38 15.6727 15.1561C15.8886 14.9402 16.2406 14.9402 16.4645 15.1561L17.9521 16.6437C18.1681 16.8597 18.1681 17.2116 17.9521 17.4355C17.8401 17.5395 17.6962 17.5955 17.5522 17.5955Z" fill="#BF8745" fill-opacity="0.68"/>
</svg>
