<svg width="22" height="22" viewBox="0 0 22 22" fill="none" xmlns="http://www.w3.org/2000/svg">
<path d="M19.7747 7.98835C17.8138 7.98835 17.0122 6.60168 17.9872 4.90085C18.5505 3.91501 18.2147 2.65835 17.2288 2.09501L15.3547 1.02251C14.4988 0.513346 13.3938 0.816679 12.8847 1.67251L12.7655 1.87835C11.7905 3.57918 10.1872 3.57918 9.20132 1.87835L9.08215 1.67251C8.59465 0.816679 7.48965 0.513346 6.63382 1.02251L4.75965 2.09501C3.77382 2.65835 3.43799 3.92585 4.00132 4.91168C4.98715 6.60168 4.18549 7.98835 2.22465 7.98835C1.09799 7.98835 0.166321 8.90918 0.166321 10.0467V11.9533C0.166321 13.08 1.08715 14.0117 2.22465 14.0117C4.18549 14.0117 4.98715 15.3983 4.00132 17.0992C3.43799 18.085 3.77382 19.3417 4.75965 19.905L6.63382 20.9775C7.48965 21.4867 8.59465 21.1833 9.10382 20.3275L9.22299 20.1217C10.198 18.4208 11.8013 18.4208 12.7872 20.1217L12.9063 20.3275C13.4155 21.1833 14.5205 21.4867 15.3763 20.9775L17.2505 19.905C18.2363 19.3417 18.5722 18.0742 18.0088 17.0992C17.023 15.3983 17.8247 14.0117 19.7855 14.0117C20.9122 14.0117 21.8438 13.0908 21.8438 11.9533V10.0467C21.833 8.92001 20.9122 7.98835 19.7747 7.98835ZM10.9997 14.5208C9.06049 14.5208 7.47882 12.9392 7.47882 11C7.47882 9.06085 9.06049 7.47918 10.9997 7.47918C12.9388 7.47918 14.5205 9.06085 14.5205 11C14.5205 12.9392 12.9388 14.5208 10.9997 14.5208Z" fill="#FEA500"/>
</svg>
