<svg width="11" height="10" viewBox="0 0 11 10" fill="none" xmlns="http://www.w3.org/2000/svg">
<path d="M3.09729 6.48391C3.14144 6.28723 3.06117 6.00627 2.92068 5.86578L1.94533 4.89043C1.64028 4.58538 1.51987 4.26026 1.60817 3.9793C1.70049 3.69833 1.98547 3.50567 2.41093 3.43342L3.66324 3.2247C3.84386 3.19259 4.06462 3.03204 4.14891 2.86747L4.83928 1.48271C5.03997 1.08534 5.31291 0.864586 5.60993 0.864586C5.90695 0.864586 6.17989 1.08534 6.38058 1.48271L7.07095 2.86747C7.12313 2.97183 7.23151 3.07218 7.34791 3.14041L3.02504 7.46328C2.96885 7.51947 2.87252 7.46729 2.88857 7.38701L3.09729 6.48391Z" fill="#DE7800"/>
<path d="M8.29916 5.86516C8.15466 6.00965 8.07439 6.2866 8.12255 6.48328L8.3995 7.69144C8.5159 8.19316 8.44366 8.57046 8.1948 8.75108C8.09446 8.82333 7.97404 8.85945 7.83356 8.85945C7.62885 8.85945 7.38803 8.78319 7.12312 8.62665L5.94707 7.92825C5.76244 7.81988 5.45739 7.81988 5.27275 7.92825L4.09671 8.62665C3.65118 8.88755 3.26987 8.9317 3.02502 8.75108C2.93271 8.68284 2.86447 8.59053 2.82032 8.47011L7.7011 3.58933C7.88574 3.4047 8.14664 3.32041 8.3995 3.36456L8.8049 3.43279C9.23036 3.50504 9.51534 3.6977 9.60766 3.97867C9.69596 4.25964 9.57555 4.58475 9.2705 4.8898L8.29916 5.86516Z" fill="#DE7800"/>
</svg>
