<svg width="29" height="23" viewBox="0 0 29 23" fill="none" xmlns="http://www.w3.org/2000/svg">
<path d="M27.2714 9.85714C27.8103 9.85714 28.2571 9.41029 28.2571 8.87143V7.55714C28.2571 1.76114 26.496 0 20.7 0H12.4857V2.95714C12.4857 3.496 12.0389 3.94286 11.5 3.94286C10.9611 3.94286 10.5143 3.496 10.5143 2.95714V0H7.55714C1.76114 0 0 1.76114 0 7.55714V8.21429C0 8.75314 0.446857 9.2 0.985714 9.2C2.24743 9.2 3.28571 10.2383 3.28571 11.5C3.28571 12.7617 2.24743 13.8 0.985714 13.8C0.446857 13.8 0 14.2469 0 14.7857V15.4429C0 21.2389 1.76114 23 7.55714 23H10.5143V20.0429C10.5143 19.504 10.9611 19.0571 11.5 19.0571C12.0389 19.0571 12.4857 19.504 12.4857 20.0429V23H20.7C26.496 23 28.2571 21.2389 28.2571 15.4429C28.2571 14.904 27.8103 14.4571 27.2714 14.4571C26.0097 14.4571 24.9714 13.4189 24.9714 12.1571C24.9714 10.8954 26.0097 9.85714 27.2714 9.85714ZM12.4857 14.352C12.4857 14.8909 12.0389 15.3377 11.5 15.3377C10.9611 15.3377 10.5143 14.8909 10.5143 14.352V8.648C10.5143 8.10914 10.9611 7.66229 11.5 7.66229C12.0389 7.66229 12.4857 8.10914 12.4857 8.648V14.352Z" fill="#FEA500"/>
</svg>
