<svg width="23" height="18" viewBox="0 0 23 18" fill="none" xmlns="http://www.w3.org/2000/svg">
<path d="M21.46 7.5C21.87 7.5 22.21 7.16 22.21 6.75V5.75C22.21 1.34 20.87 0 16.46 0H10.21V2.25C10.21 2.66 9.86996 3 9.45996 3C9.04996 3 8.70996 2.66 8.70996 2.25V0H6.45996C2.04996 0 0.709961 1.34 0.709961 5.75V6.25C0.709961 6.66 1.04996 7 1.45996 7C2.41996 7 3.20996 7.79 3.20996 8.75C3.20996 9.71 2.41996 10.5 1.45996 10.5C1.04996 10.5 0.709961 10.84 0.709961 11.25V11.75C0.709961 16.16 2.04996 17.5 6.45996 17.5H8.70996V15.25C8.70996 14.84 9.04996 14.5 9.45996 14.5C9.86996 14.5 10.21 14.84 10.21 15.25V17.5H16.46C20.87 17.5 22.21 16.16 22.21 11.75C22.21 11.34 21.87 11 21.46 11C20.5 11 19.71 10.21 19.71 9.25C19.71 8.29 20.5 7.5 21.46 7.5ZM10.21 10.92C10.21 11.33 9.86996 11.67 9.45996 11.67C9.04996 11.67 8.70996 11.33 8.70996 10.92V6.58C8.70996 6.17 9.04996 5.83 9.45996 5.83C9.86996 5.83 10.21 6.17 10.21 6.58V10.92Z" fill="white"/>
</svg>
