<svg width="27" height="26" viewBox="0 0 27 26" fill="none" xmlns="http://www.w3.org/2000/svg">
<path d="M13.4015 -0.000244141C6.16356 -0.000244141 0.274849 5.83163 0.274849 12.9998C0.274849 20.1679 6.16356 25.9998 13.4015 25.9998C20.6395 25.9998 26.5282 20.1679 26.5282 12.9998C26.5282 5.83163 20.6395 -0.000244141 13.4015 -0.000244141ZM15.421 18.9998H11.382C11.1142 18.9998 10.8574 18.8944 10.668 18.7069C10.4787 18.5193 10.3723 18.265 10.3723 17.9998C10.3723 17.7345 10.4787 17.4802 10.668 17.2926C10.8574 17.1051 11.1142 16.9998 11.382 16.9998H15.421C15.6888 16.9998 15.9457 17.1051 16.135 17.2926C16.3244 17.4802 16.4308 17.7345 16.4308 17.9998C16.4308 18.265 16.3244 18.5193 16.135 18.7069C15.9457 18.8944 15.6888 18.9998 15.421 18.9998ZM18.4503 14.9998H8.35281C8.08501 14.9998 7.82818 14.8944 7.63881 14.7069C7.44945 14.5193 7.34306 14.265 7.34306 13.9998C7.34306 13.7345 7.44945 13.4802 7.63881 13.2926C7.82818 13.1051 8.08501 12.9998 8.35281 12.9998H18.4503C18.7181 12.9998 18.9749 13.1051 19.1643 13.2926C19.3536 13.4802 19.46 13.7345 19.46 13.9998C19.46 14.265 19.3536 14.5193 19.1643 14.7069C18.9749 14.8944 18.7181 14.9998 18.4503 14.9998ZM20.4697 10.9998H6.33332C6.06552 10.9998 5.80869 10.8944 5.61932 10.7069C5.42996 10.5193 5.32357 10.265 5.32357 9.99975C5.32357 9.73454 5.42996 9.48019 5.61932 9.29265C5.80869 9.10511 6.06552 8.99975 6.33332 8.99975H20.4697C20.7376 8.99975 20.9944 9.10511 21.1837 9.29265C21.3731 9.48019 21.4795 9.73454 21.4795 9.99975C21.4795 10.265 21.3731 10.5193 21.1837 10.7069C20.9944 10.8944 20.7376 10.9998 20.4697 10.9998Z" fill="#FEA500"/>
</svg>
