<svg width="26" height="23" viewBox="0 0 26 23" fill="none" xmlns="http://www.w3.org/2000/svg">
<path d="M19.5 0.140717H6.5C2.6 0.140717 0 2.09072 0 6.64072V15.7407C0 20.2907 2.6 22.2407 6.5 22.2407H19.5C23.4 22.2407 26 20.2907 26 15.7407V6.64072C26 2.09072 23.4 0.140717 19.5 0.140717ZM5.525 14.4407C5.525 14.9737 5.083 15.4157 4.55 15.4157C4.017 15.4157 3.575 14.9737 3.575 14.4407V7.94072C3.575 7.40772 4.017 6.96572 4.55 6.96572C5.083 6.96572 5.525 7.40772 5.525 7.94072V14.4407ZM13 15.0907C10.842 15.0907 9.1 13.3487 9.1 11.1907C9.1 9.03272 10.842 7.29072 13 7.29072C15.158 7.29072 16.9 9.03272 16.9 11.1907C16.9 13.3487 15.158 15.0907 13 15.0907ZM22.425 14.4407C22.425 14.9737 21.983 15.4157 21.45 15.4157C20.917 15.4157 20.475 14.9737 20.475 14.4407V7.94072C20.475 7.40772 20.917 6.96572 21.45 6.96572C21.983 6.96572 22.425 7.40772 22.425 7.94072V14.4407Z" fill="#F48220"/>
</svg>
