<svg width="33" height="29" viewBox="0 0 33 29" fill="none" xmlns="http://www.w3.org/2000/svg">
<path d="M29.0808 3.31909H24.0615L22.0981 1.18152C21.5122 0.532327 20.6572 0.152313 19.7705 0.152313H13.0569C12.1702 0.152313 11.3152 0.532327 10.7135 1.18152L8.76595 3.31909H3.74661C2.00488 3.31909 0.579834 4.74414 0.579834 6.48587V25.4865C0.579834 27.2283 2.00488 28.6533 3.74661 28.6533H29.0808C30.8226 28.6533 32.2476 27.2283 32.2476 25.4865V6.48587C32.2476 4.74414 30.8226 3.31909 29.0808 3.31909ZM16.4137 23.9031C12.0436 23.9031 8.49678 20.3564 8.49678 15.9862C8.49678 11.616 12.0436 8.06926 16.4137 8.06926C20.7839 8.06926 24.3307 11.616 24.3307 15.9862C24.3307 20.3564 20.7839 23.9031 16.4137 23.9031ZM16.4137 9.65265L14.4345 14.007L10.0802 15.9862L14.4345 17.9654L16.4137 22.3198L18.393 17.9654L22.7473 15.9862L18.393 14.007L16.4137 9.65265Z" fill="#FEA500"/>
</svg>
